<?xml version="1.0" encoding="utf-8"?>
<!-- Generator: Adobe Illustrator 17.0.0, SVG Export Plug-In . SVG Version: 6.00 Build 0)  -->
<!DOCTYPE svg PUBLIC "-//W3C//DTD SVG 1.1//EN" "http://www.w3.org/Graphics/SVG/1.1/DTD/svg11.dtd">
<svg version="1.1" id="图层_1" xmlns:ev="http://www.w3.org/2001/xml-events"
	 xmlns="http://www.w3.org/2000/svg" xmlns:xlink="http://www.w3.org/1999/xlink" x="0px" y="0px" width="1920px" height="1200px"
	 viewBox="0 0 1920 1200" enable-background="new 0 0 1920 1200" xml:space="preserve">
<linearGradient id="SVGID_1_" gradientUnits="userSpaceOnUse" x1="57.6893" y1="999.7525" x2="57.6893" y2="1000.7525" gradientTransform="matrix(1920 0 0 -1200 -109803.5 1200903)">
	<stop  offset="0.01" style="stop-color:#A7D6CC"/>
	<stop  offset="1" style="stop-color:#2382F8"/>
</linearGradient>
<path fill="url(#SVGID_1_)" d="M0,0h1920v1200H0V0z"/>
<linearGradient id="SVGID_2_" gradientUnits="userSpaceOnUse" x1="57.5913" y1="999.6968" x2="57.765" y2="1000.6816" gradientTransform="matrix(1920 0 0 -1200 -109803.5 1200903)">
	<stop  offset="0" style="stop-color:#FFF772;stop-opacity:0.902"/>
	<stop  offset="0.33" style="stop-color:#BCFFA1;stop-opacity:0.8"/>
	<stop  offset="1" style="stop-color:#A67AFF;stop-opacity:0.6"/>
</linearGradient>
<path fill="url(#SVGID_2_)" d="M0,0h1920v1200H0V0z"/>
<path opacity="0.102" fill="#FFFFFF" enable-background="new    " d="M285,727c114.323,0,207,92.677,207,207s-92.677,207-207,207
	S78,1048.323,78,934S170.677,727,285,727z"/>
<path opacity="0.149" fill="#FFFFFF" enable-background="new    " d="M285,773c88.918,0,161,72.082,161,161s-72.082,161-161,161
	s-161-72.082-161-161S196.082,773,285,773z"/>
<path opacity="0.2" fill="#FFFFFF" enable-background="new    " d="M285,807.5c69.864,0,126.5,56.636,126.5,126.5
	s-56.636,126.5-126.5,126.5S158.5,1003.864,158.5,934S215.136,807.5,285,807.5z"/>
<path fill="#F4FFEC" d="M285,836.889c53.633,0,97.111,43.478,97.111,97.111s-43.478,97.111-97.111,97.111
	S187.889,987.633,187.889,934S231.367,836.889,285,836.889z"/>
<linearGradient id="SVGID_3_" gradientUnits="userSpaceOnUse" x1="57.6893" y1="1000.0804" x2="57.6893" y2="1001.0804" gradientTransform="matrix(1920 0 0 -522 -109803.5 523242)">
	<stop  offset="0" style="stop-color:#606D3D"/>
	<stop  offset="1" style="stop-color:#3D6A6E"/>
</linearGradient>
<path fill="url(#SVGID_3_)" d="M0,840l32-28l37-28c0,0,27.694,8.565,51,8c33.383,25.989,149,85,149,85l67.434,6.301
	c0,0,60.675-38.091,89.566-61.301c25.331-11.711,54-27,54-27l28-2c0,0,17.609,5.521,37,9c7.321,4.369,28.442,16.269,41,21
	c7.806-0.274,17.327-0.099,23-2c13.154,8.235,36,19,36,19l49,17l55,36l82-42l64-68l19-18l15-32l18-39c0,0,16.218-3.974,35-16
	c12.637,6.845,35,26,35,26s10.821,26.844,43,57c14.233,0.351,38,10,38,10s9.033,12.1,39,42c25.892,8.906,42,14,42,14l46,62l17,7
	l22-13l21-26c0,0,12.245-3.52,24-12c25.971-19.956,42-50,42-50l39-18l45,44l31,2c0,0,23.396,14.501,49,30c18.663,5.844,58,20,58,20
	s17.379,0.131,40-3c19.816-7.537,42.251-28.439,60-47c34.888-5.457,63-12,63-12l29,27l33,3l122,60v299H0V840z"/>
<linearGradient id="SVGID_4_" gradientUnits="userSpaceOnUse" x1="57.6343" y1="1000.3189" x2="57.6343" y2="1001.3189" gradientTransform="matrix(1631 0 0 -370 -93066 371167)">
	<stop  offset="0" style="stop-color:#606D3D;stop-opacity:0"/>
	<stop  offset="1" style="stop-color:#BEF59E;stop-opacity:0.8"/>
</linearGradient>
<path fill="url(#SVGID_4_)" d="M120,792c33.383,25.989,149,85,149,85l67.434,6.301c0,0,60.675-38.091,89.566-61.301
	c25.331-11.711,54-27,54-27l28-2L385,947l360,51l86-147l64-68l19-18l15-32l18-39c0,0,9.176-3.444,17-7c8.636-3.926,16-8,16-8
	l-25,109c0,0,7.838,23.218,19,38c-2.707,48.753,25,112,25,112l68-55l35,21l13,51l209-18l61-44l-46-24l-41,48l-56-21l22-13l21-26
	c0,0,12.245-3.52,24-12c25.971-19.956,42-50,42-50l39-18l10,57l29,68l113,36l154-65l-83-3c0,0,42.251-28.439,60-47
	c34.888-5.457,63-12,63-12l15,54l-11,184l-742.571-17.57L923,834l2-16l-16,7l-29,48l-135,157l-389-44
	C356,986,200.156,894.196,120,792z"/>
<linearGradient id="SVGID_5_" gradientUnits="userSpaceOnUse" x1="57.6893" y1="1000.2594" x2="57.6893" y2="1001.2594" gradientTransform="matrix(1920 0 0 -399 -109803.5 400303.5)">
	<stop  offset="0" style="stop-color:#3B503C"/>
	<stop  offset="1" style="stop-color:#214338"/>
</linearGradient>
<path fill="url(#SVGID_5_)" d="M1920,851.423l-33,17.539l-70,37.269c0,0-25.747-12.624-55-28.5c-43.062-0.024-108,0-108,0
	l-70.434,61.759c0,0-60.675-26.323-89.566-42.362c-19.363,0-54-18.658-54-18.658l-28-1.383c0,0-17.609,3.815-37,6.22
	c-7.321,3.019-28.442,11.243-41,14.512c-10.032,0.68-15.584-0.268-23-1.382c-13.154,5.69-36,13.13-36,13.13l-49,11.748l-55,24.878
	l-82-29.025l-96-16.418l-43-37.269l-53-26.308L861,801l-70,20.827l-69,77.827l-27,43.775l-21,7.601l-18-11.748l-88-55.236
	c0,0-19.745,3.395-33,5.528c-4.291-8.11-33-48.374-33-48.374l-44-8.412l-40,26.38l-31,1.382c0,0-37.396,0.753-63,1.45
	c-28.66,17.28-46.629,21.561-77,35.819c-34.888-3.771-83-26.665-83-26.665l-38-26.308L64,858L0,831.692V1200h1920V851.423z"/>
<linearGradient id="SVGID_6_" gradientUnits="userSpaceOnUse" x1="57.6675" y1="1001.1927" x2="57.6675" y2="1002.1927" gradientTransform="matrix(1794 0 0 -179 -102432.5 180193.5)">
	<stop  offset="0" style="stop-color:#3B503C;stop-opacity:0"/>
	<stop  offset="1" style="stop-color:#BFF59D;stop-opacity:0.6"/>
</linearGradient>
<path fill="url(#SVGID_6_)" d="M1920,851.423l-33,17.539l-70,37.269c0,0-25.747-12.624-55-28.5c-43.062-0.024-108,0-108,0
	l-70.434,61.759L1266,980H949l-19-33l-58-80l-11-66l-70,20.827l-69,77.827l-27,43.775l-21,7.601L622,980H327
	c0,0-64.245-63.48-80-82.181c-34.888-3.771-83-26.665-83-26.665l-38-26.308L261,980h1659V851.423z"/>
<linearGradient id="SVGID_7_" gradientUnits="userSpaceOnUse" x1="57.6893" y1="1000.5632" x2="57.6893" y2="1001.5632" gradientTransform="matrix(1920 0 0 -285 -109803.5 286360.5)">
	<stop  offset="0" style="stop-color:#2E483A"/>
	<stop  offset="1" style="stop-color:#243427"/>
</linearGradient>
<path fill="url(#SVGID_7_)" d="M424,1066l166-97l51-15l42,49l50,46c0,0,48.149-29.152,70-44c26.746-14.189,56-33,56-33l40-40l49-17
	l10,28l24,16l70,106l224-77l53,12l144,84l447,116H0L424,1066z"/>
<linearGradient id="SVGID_8_" gradientUnits="userSpaceOnUse" x1="57.6893" y1="1000.0042" x2="57.6893" y2="1001.0042" gradientTransform="matrix(1920 0 0 -601 -109803.5 602202.5)">
	<stop  offset="0" style="stop-color:#0F2014"/>
	<stop  offset="1" style="stop-color:#1E221E"/>
</linearGradient>
<path fill="url(#SVGID_8_)" d="M1920,599l-74,13l-23,15l-41,73l-33,128c0,0-34.634,27.837-65,33c-24.279,25.965-30,45-30,45
	s-32.627-8.566-58-16c-28.123,10.837-52,23-52,23l-77,108c0,0-77.074,50.224-133,65c-48.087-14.228-85-39-85-39l-48-52l-68-7l-52,12
	l-56-11l-69,39l-111,105l-158,30l-85-69l-79-56l-69-103l-48-7l-55,20c0,0-68.609-53.617-105-69c-35.173,14.485-82,21-82,21l-38-24
	l-53-3L0,812v388h1920V599z"/>
<linearGradient id="SVGID_9_" gradientUnits="userSpaceOnUse" x1="56.4344" y1="1000.2408" x2="56.4344" y2="1001.2408" gradientTransform="matrix(381 0 0 -409 -19846 410120.5)">
	<stop  offset="0" style="stop-color:#71E198;stop-opacity:0"/>
	<stop  offset="1" style="stop-color:#B9F4A2"/>
</linearGradient>
<path opacity="0.4" fill="url(#SVGID_9_)" enable-background="new    " d="M1823,627l-41,73l-33,128c0,0-34.634,27.837-65,33
	c-24.279,25.965-30,45-30,45l-46,16l-12-32l-52,22l-46,65l-33,45l36-10l64-64l39-4l43-28h53l41-58l35-32l41-33l29-180L1823,627z"/>
<linearGradient id="SVGID_10_" gradientUnits="userSpaceOnUse" x1="56.6012" y1="1001.3203" x2="55.6501" y2="1001.0113" gradientTransform="matrix(305.31 0 0 -265.785 -16401.0859 266900.2812)">
	<stop  offset="0" style="stop-color:#FFFFFF;stop-opacity:0.2"/>
	<stop  offset="1" style="stop-color:#FFFFFF;stop-opacity:0"/>
</linearGradient>
<path fill="url(#SVGID_10_)" d="M557.738,813.687l75.134-132.892l152.655-1.379l77.521,131.514l-75.133,132.892l-152.655,1.379
	L557.738,813.687z"/>
<linearGradient id="SVGID_11_" gradientUnits="userSpaceOnUse" x1="55.9388" y1="1001.7067" x2="55.0478" y2="1001.2527" gradientTransform="matrix(231.755 0 0 -209.624 -12283.0244 210747.0781)">
	<stop  offset="0" style="stop-color:#FFFFFF;stop-opacity:0.2"/>
	<stop  offset="1" style="stop-color:#FFFFFF;stop-opacity:0.051"/>
</linearGradient>
<path fill="url(#SVGID_11_)" d="M446.388,828.661l50.173-104.812l115.878-8.604l65.704,96.209l-50.174,104.812l-115.877,8.603
	L446.388,828.661z"/>
<linearGradient id="SVGID_12_" gradientUnits="userSpaceOnUse" x1="54.4842" y1="1002.4969" x2="53.557" y2="1002.1223" gradientTransform="matrix(147.0391 0 0 -132.988 -6747.8901 134080.7969)">
	<stop  offset="0" style="stop-color:#FFFFFF;stop-opacity:0.2"/>
	<stop  offset="1" style="stop-color:#FFFFFF;stop-opacity:0.051"/>
</linearGradient>
<path fill="url(#SVGID_12_)" d="M1110.356,795.276l31.834-66.494l73.519-5.46l41.686,61.035l-31.835,66.493l-73.519,5.46
	L1110.356,795.276z"/>
<linearGradient id="SVGID_13_" gradientUnits="userSpaceOnUse" x1="53.1279" y1="1003.2908" x2="52.2369" y2="1002.8368" gradientTransform="matrix(110.776 0 0 -100.014 -4553.353 101102.1328)">
	<stop  offset="0" style="stop-color:#FFFFFF;stop-opacity:0.2"/>
	<stop  offset="1" style="stop-color:#FFFFFF;stop-opacity:0"/>
</linearGradient>
<path fill="url(#SVGID_13_)" d="M1219.767,789.287l24.004-50.008l55.388-4.129l31.384,45.878l-24.005,50.007l-55.388,4.129
	L1219.767,789.287z"/>
<linearGradient id="SVGID_14_" gradientUnits="userSpaceOnUse" x1="55.8006" y1="1000.921" x2="56.4758" y2="1000.921" gradientTransform="matrix(351 0 0 -329 -17903 330052.5)">
	<stop  offset="0" style="stop-color:#000000"/>
	<stop  offset="1" style="stop-color:#000000;stop-opacity:0"/>
</linearGradient>
<path opacity="0.2" fill="url(#SVGID_14_)" enable-background="new    " d="M1683,615.5l237-30.5v323l-236.544,6L1683,615.5z"/>
<linearGradient id="SVGID_15_" gradientUnits="userSpaceOnUse" x1="51.4826" y1="1003.5646" x2="50.4826" y2="1003.5646" gradientTransform="matrix(85.0031 0 0 -85.0029 -2656.2024 85972.0469)">
	<stop  offset="0" style="stop-color:#EDD0D0"/>
	<stop  offset="1" style="stop-color:#F9F2B6"/>
</linearGradient>
<path fill="url(#SVGID_15_)" d="M1674.586,623.719c23.418-1.595,43.695,16.095,45.29,39.513
	c1.596,23.418-16.095,43.695-39.513,45.29c-23.418,1.596-43.695-16.095-45.29-39.512
	C1633.477,645.592,1651.168,625.314,1674.586,623.719z"/>
<path fill="#101D15" d="M1641.5,659c1.933,0,3.5,4.029,3.5,9s-1.567,9-3.5,9s-3.5-4.029-3.5-9S1639.567,659,1641.5,659z"/>
<path fill="#FFFFFF" d="M1640.5,662c0.828,0,1.5,2.91,1.5,6.5s-0.672,6.5-1.5,6.5s-1.5-2.91-1.5-6.5S1639.672,662,1640.5,662z"/>
<linearGradient id="SVGID_16_" gradientUnits="userSpaceOnUse" x1="53.409" y1="1001.2823" x2="53.409" y2="1002.2823" gradientTransform="matrix(129.928 0 0 -170 -5243.2866 171093)">
	<stop  offset="0" style="stop-color:#AFC6C1"/>
	<stop  offset="1" style="stop-color:#92A9A4"/>
</linearGradient>
<path fill="url(#SVGID_16_)" d="M1649.004,711.661l17.687-5.214L1694,705l4,21l-8.513,50.236l17.533,21.958L1739,813l22,11l-27,47
	l-38,4l-59-8l-5.928-36.027l7.951-30.428l-5.054-44.76l7.665-34.601L1649.004,711.661z"/>
<linearGradient id="SVGID_17_" gradientUnits="userSpaceOnUse" x1="49.6439" y1="1001.8872" x2="50.6439" y2="1001.8872" gradientTransform="matrix(75.928 0 0 -160.553 -2138.2866 161642.7031)">
	<stop  offset="0" style="stop-color:#DAEA9C"/>
	<stop  offset="1" style="stop-color:#A4BBB6"/>
</linearGradient>
<path fill="url(#SVGID_17_)" d="M1649.004,711.661l17.687-5.214L1653,714l-8,32l-2,40l8,37l25-2l29-1l2,30l-57-25l-4,7l6,14l-15,21
	l-5.928-36.027l7.951-30.428l-5.054-44.76l7.665-34.601L1649.004,711.661z"/>
<linearGradient id="SVGID_18_" gradientUnits="userSpaceOnUse" x1="53.0553" y1="1005.2635" x2="53.3973" y2="1004.3239" gradientTransform="matrix(126.246 0 0 -65 -5025.8892 66146.5)">
	<stop  offset="0" style="stop-color:#3F504C"/>
	<stop  offset="1" style="stop-color:#606450"/>
</linearGradient>
<path fill="url(#SVGID_18_)" d="M1654.169,846.318l14.753,10.572L1691,840l13.599-18.489L1728,811l35,11l-30,50l-40,4l-55-9
	l-1.246-11.481L1654.169,846.318z"/>
<path fill="#893419" d="M1640.112,916.259l21.837-0.382l0.051,2.741L1640.163,919L1640.112,916.259z"/>
<path fill="#92A9A4" d="M1650.828,905.106c3.183-0.056,8.394,0.735,11.172,0.894c0,2.994-0.104,7.018-0.051,9.877
	c-4.516,0.079-17.013,0.298-21.837,0.382C1640,910.205,1644.797,905.211,1650.828,905.106z"/>
<path fill="#DAEA9C" d="M1650.828,905.106c-3.458,2.101-5.666,4.523-5.554,10.577c-1.721,0.079-3.421,0.492-5.162,0.576
	C1640,910.205,1644.797,905.211,1650.828,905.106z"/>
<path fill="#101D15" d="M1643.487,851.359l8.639-5.6L1669,857l-7,50h-13L1643.487,851.359z"/>
<linearGradient id="SVGID_19_" gradientUnits="userSpaceOnUse" x1="6.1887" y1="1004.4477" x2="6.1887" y2="1005.4477" gradientTransform="matrix(11.5129 0 0 -61.241 1577.993 62420.4062)">
	<stop  offset="0" style="stop-color:#262B2D"/>
	<stop  offset="1" style="stop-color:#57643E"/>
</linearGradient>
<path fill="url(#SVGID_19_)" d="M1643.487,851.359l8.639-5.6L1655,907h-6L1643.487,851.359z"/>
<path fill="#893419" d="M1678.112,914.259l21.837-0.382l0.051,2.741L1678.163,917L1678.112,914.259z"/>
<path fill="#92A9A4" d="M1688.828,903.106c6.03-0.106,11.009,4.716,11.121,10.771c-4.516,0.079-17.013,0.298-21.837,0.382
	C1678,908.205,1682.798,903.211,1688.828,903.106z"/>
<path fill="#DAEA9C" d="M1688.828,903.106c-3.458,2.101-5.666,4.523-5.554,10.577c-1.721,0.079-3.421,0.492-5.162,0.576
	C1678,908.205,1682.798,903.211,1688.828,903.106z"/>
<path fill="#101D15" d="M1678,850l11.585-9.196L1701,827l-5,78h-12L1678,850z"/>
<linearGradient id="SVGID_20_" gradientUnits="userSpaceOnUse" x1="3.7727" y1="1004.2344" x2="3.7727" y2="1005.2344" gradientTransform="matrix(11 0 0 -64 1642 65176)">
	<stop  offset="0" style="stop-color:#2E3530"/>
	<stop  offset="1" style="stop-color:#57643F"/>
</linearGradient>
<path fill="url(#SVGID_20_)" d="M1678,849l11-8v64h-5L1678,849z"/>
<linearGradient id="SVGID_21_" gradientUnits="userSpaceOnUse" x1="51.2363" y1="1001.9427" x2="52.2289" y2="1001.8208" gradientTransform="matrix(96.0942 0 0 -159.4286 -3302.1321 160426.1094)">
	<stop  offset="0" style="stop-color:#545A3D"/>
	<stop  offset="1" style="stop-color:#000000"/>
</linearGradient>
<path fill="url(#SVGID_21_)" d="M1667.332,707.835c-5.353,0.095-10.485,1.671-18.004,3.792
	c-17.858,17.546-5.49,43.099-21.305,62.543c-4.644-22.954,4.123-48.812,20.799-62.401c-0.274,0.077-0.542,0.153-0.822,0.231
	c6.034-14.369,12.859-29.653,13.976-45.325c-16.775-5.013-20.22-14.961-21.381-19.592c-2.056,5.086-5.673,11.466-5.896,16.439
	c-9.082-22.477,12.605-47.866,38.776-48.748c30.592-1.031,47.641,22.513,49.292,46.758
	C1723.995,679.55,1715.923,712.231,1667.332,707.835z"/>
<path fill="#450B0B" d="M1546.915,746.391l46.954,2.094l-4.187,93.906l-17.982-0.801l-27.278-39.282L1546.915,746.391z"/>
<linearGradient id="SVGID_22_" gradientUnits="userSpaceOnUse" x1="37.5583" y1="1003.2674" x2="38.5486" y2="1003.1282" gradientTransform="matrix(30 0 0 -95.199 414.5 96296.0234)">
	<stop  offset="0" style="stop-color:#C6B372"/>
	<stop  offset="1" style="stop-color:#430808"/>
</linearGradient>
<path fill="url(#SVGID_22_)" d="M1546.915,746.391l1.234,21.446L1550,800l23,34l-1.3,7.59L1543,802L1546.915,746.391z"/>
<path fill="#262B2D" d="M1558.817,815.946c11.419,23.003,39.323,32.394,62.326,20.976c23.003-11.419,32.394-39.323,20.975-62.326
	c-11.418-23.003-39.323-32.394-62.326-20.976l-37.832,18.78c0,0,5.957,5.915,13.674,10.563
	C1552.712,793.594,1553.529,805.294,1558.817,815.946z"/>
<linearGradient id="SVGID_23_" gradientUnits="userSpaceOnUse" x1="50.4668" y1="1002.9369" x2="50.4668" y2="1003.9369" gradientTransform="matrix(79.183 0 0 -88.1612 -2414.5615 89261.8906)">
	<stop  offset="0" style="stop-color:#262B2D"/>
	<stop  offset="1" style="stop-color:#5C6341"/>
</linearGradient>
<path fill="url(#SVGID_23_)" d="M1579.792,753.62l-37.832,18.78c0,0,5.957,5.915,13.674,10.563
	c-2.922,10.631-2.105,22.331,3.183,32.983c11.419,23.003,39.323,32.394,62.326,20.976"/>
<path fill="#FFFFFF" d="M1560,789c1.657,0,3,4.029,3,9s-1.343,9-3,9s-3-4.029-3-9S1558.343,789,1560,789z"/>
<path fill="#3A220F" d="M1608.147,720.092l49.811,50.269l-13.054,62.888l18.457,40.455L1643,899l-1.49,15.771l-67.246,4.009
	l-11.962-23.556l9.398-53.634l-17.823-26.821l18.224,17.83L1575,793l-15-37l-13.085-9.609L1608.147,720.092z"/>
<linearGradient id="SVGID_24_" gradientUnits="userSpaceOnUse" x1="48.6083" y1="1001.7423" x2="49.6083" y2="1001.7423" gradientTransform="matrix(67.085 0 0 -173.908 -1713.9702 175018.0625)">
	<stop  offset="0" style="stop-color:#D3F68E;stop-opacity:0.8"/>
	<stop  offset="1" style="stop-color:#BF3A3A"/>
</linearGradient>
<path fill="url(#SVGID_24_)" d="M1608.147,720.092l-36.424,27.166L1596,793l-15,43l22-3l11,5l-6,38l-9,15l-37,3l8-53l-16-24l18,15
	l3-40l-15-36l-13.085-9.609L1608.147,720.092z"/>
<path fill="#101D15" d="M1598,906l22,25l-52.105,0.507l-14.818,24.747l-21.745-8.495l14.754-43.535l28.987-2.384L1598,906z"/>
<linearGradient id="SVGID_25_" gradientUnits="userSpaceOnUse" x1="48.0224" y1="1006.7842" x2="47.0521" y2="1006.5423" gradientTransform="matrix(56.668 0 0 -45.9189 -1130.5762 47146.7461)">
	<stop  offset="0" style="stop-color:#262B2D"/>
	<stop  offset="1" style="stop-color:#B5C672;stop-opacity:0.4"/>
</linearGradient>
<path fill="url(#SVGID_25_)" d="M1588,904l-35,7l-10,36l-11.668,0.759l14.754-43.535l28.987-2.384L1588,904z"/>
<path fill="#893419" d="M1521.673,960.841l30.995-0.558l0.072,3.999l-30.995,0.558L1521.673,960.841z"/>
<path fill="#92A9A4" d="M1536.883,944.564c8.559-0.154,15.626,6.883,15.785,15.719c-6.41,0.115-24.147,0.434-30.995,0.558
	C1521.514,952.006,1528.324,944.718,1536.883,944.564z"/>
<path fill="#DAEA9C" d="M1536.883,944.564c-4.907,3.067-8.042,6.601-7.883,15.436c-2.443,0.115-4.856,0.717-7.327,0.841
	C1521.514,952.006,1528.324,944.718,1536.883,944.564z"/>
<path fill="#101D15" d="M1598,906l16-1l25,9l-19.478,75.015l-28.01-1.857L1598,906z"/>
<linearGradient id="SVGID_26_" gradientUnits="userSpaceOnUse" x1="31.4748" y1="1003.188" x2="31.4748" y2="1004.188" gradientTransform="matrix(22.488 0 0 -82.158 894.9498 83407.1016)">
	<stop  offset="0" style="stop-color:#262B2D"/>
	<stop  offset="1" style="stop-color:#B6C071;stop-opacity:0.4"/>
</linearGradient>
<path fill="url(#SVGID_26_)" d="M1604,906l10-1l-9,18l-4,58l-9.488,6.158l4.633-57.951L1604,906z"/>
<path fill="#893419" d="M1589.031,991.912l30.969,1.38l-0.178,3.996l-30.969-1.38L1589.031,991.912z"/>
<path fill="#92A9A4" d="M1605.228,976.618c8.552,0.381,15.166,7.846,14.772,16.674c-6.404-0.285-24.127-1.075-30.969-1.38
	C1589.425,983.084,1596.676,976.237,1605.228,976.618z"/>
<path fill="#DAEA9C" d="M1605.228,976.618c-5.69,3.35-7.834,6.554-8.228,15.382c-3.856,0.086-5.465-0.155-7.969-0.088
	C1589.425,983.084,1596.676,976.237,1605.228,976.618z"/>
<path fill="#D0955B" d="M1600.393,851.365c-2.207-0.098-3.916-1.967-3.818-4.174c0.098-2.207,1.967-3.916,4.174-3.818
	c2.207,0.099,3.917,1.967,3.818,4.174C1604.469,849.754,1602.6,851.464,1600.393,851.365z M1575.336,851.938
	c-2.207-0.098-3.917-1.967-3.818-4.174c0.098-2.207,1.967-3.916,4.174-3.818c2.207,0.098,3.916,1.967,3.818,4.174
	C1579.412,850.327,1577.543,852.036,1575.336,851.938z"/>
<path fill="#262B2D" d="M1608.755,865.217l-0.91,0.413c-0.755,0.342-1.644,0.008-1.986-0.747l-7.019-15.483
	c-0.342-0.755-0.007-1.644,0.747-1.986l0.911-0.413c0.754-0.342,1.643-0.007,1.985,0.747l7.019,15.484
	C1609.844,863.986,1609.51,864.875,1608.755,865.217z M1572.91,864.574c-0.209,0.801-1.028,1.282-1.829,1.074l-0.968-0.252
	c-0.802-0.209-1.283-1.028-1.074-1.83l4.281-16.452c0.209-0.801,1.028-1.282,1.83-1.074l0.967,0.252
	c0.802,0.209,1.283,1.028,1.074,1.83L1572.91,864.574z"/>
</svg>
