<?xml version="1.0" encoding="utf-8"?><!DOCTYPE svg PUBLIC "-//W3C//DTD SVG 1.1//EN" "http://www.w3.org/Graphics/SVG/1.1/DTD/svg11.dtd"><svg version="1.1" baseProfile="full" xmlns="http://www.w3.org/2000/svg" xmlns:xlink="http://www.w3.org/1999/xlink" xmlns:ev="http://www.w3.org/2001/xml-events"   height="160px"   width="160px" ><path stroke="rgb( 14, 5, 10 )" stroke-width="0px" stroke-linecap="butt" stroke-linejoin="miter" fill="rgb( 68, 203, 131 )" d="M80,0 C124.183,0 160,35.817 160,80 C160,124.183 124.183,160 80,160 C35.817,160 0,124.183 0,80 C0,35.817 35.817,0 80,0 Z "/><path stroke="rgb( 14, 5, 10 )" stroke-width="0px" stroke-linecap="butt" stroke-linejoin="miter" fill="rgb( 255, 255, 255 )" d="M43,57 C43,57 115,57 115,57 C115,57 110,107 110,107 C110,107 43,107 43,107 C43,107 43,57 43,57 Z "/><path stroke="rgb( 14, 5, 10 )" stroke-width="0px" stroke-linecap="butt" stroke-linejoin="miter" fill="rgb( 249, 206, 73 )" d="M43,97.846 C43,97.846 43,39 43,39 C43,39 62.524,39 62.524,39 C62.524,39 74.238,50.769 74.238,50.769 C74.238,50.769 110.683,50.769 110.683,50.769 C110.683,50.769 110.683,57.308 110.683,57.308 C110.683,57.308 50.81,57.308 50.81,57.308 C50.81,57.308 43,97.846 43,97.846 ZM125,65.154 C125,65.154 109.381,107 109.381,107 C109.381,107 44.302,107 44.302,107 C44.302,107 59.921,65.154 59.921,65.154 C59.921,65.154 125,65.154 125,65.154 Z "/></svg>